<svg width="56" height="56" viewBox="0 0 56 56" fill="none" xmlns="http://www.w3.org/2000/svg">
<path d="M22.1641 15.1663C23.3121 13.9857 26.3641 9.33301 27.9974 9.33301M27.9974 9.33301C29.6307 9.33301 32.6827 13.9857 33.8307 15.1663M27.9974 9.33301V23.333" stroke="#EFECEA" stroke-width="3" stroke-linecap="round" stroke-linejoin="round"/>
<path d="M42.847 24.8174L39.55 28.1167M7 39.6667H11.6667M13.153 24.8174L16.45 28.1167M53 39.6667H43.3333M53 39.6667L48 34.5M53 39.6667L48 45M41 46.6667H7M37.3333 39.6667C37.3333 37.1914 36.35 34.8174 34.5997 33.0671C32.8493 31.3167 30.4754 30.3334 28 30.3334C25.5246 30.3334 23.1507 31.3167 21.4003 33.0671C19.65 34.8174 18.6667 37.1914 18.6667 39.6667" stroke="#EFECEA" stroke-width="3" stroke-linecap="round"/>
</svg>
