<svg width="56" height="56" viewBox="0 0 56 56" fill="none" xmlns="http://www.w3.org/2000/svg">
<path d="M17.748 3.37207C18.993 3.12619 20.2834 3.25299 21.4561 3.73535C22.6287 4.21775 23.6311 5.0344 24.3359 6.08203C24.9967 7.0641 25.3682 8.20784 25.4121 9.38477L25.417 9.62109C25.4151 11.3094 24.7388 12.9287 23.5361 14.123C22.3333 15.3176 20.7018 15.9895 19 15.9912L18.7627 15.9873C17.5764 15.9437 16.424 15.5735 15.4346 14.917C14.3793 14.2168 13.5567 13.2215 13.0713 12.0576C12.586 10.8939 12.4596 9.61321 12.707 8.37793C12.9545 7.14259 13.5647 6.00721 14.4619 5.11621C15.3592 4.22516 16.503 3.61801 17.748 3.37207ZM37.748 3.37207C38.993 3.12619 40.2834 3.25299 41.4561 3.73535C42.6287 4.21775 43.6311 5.0344 44.3359 6.08203C44.9967 7.0641 45.3682 8.20784 45.4121 9.38477L45.417 9.62109C45.4151 11.3094 44.7388 12.9287 43.5361 14.123C42.3333 15.3176 40.7018 15.9895 39 15.9912L38.7627 15.9873C37.5764 15.9437 36.424 15.5735 35.4346 14.917C34.3793 14.2168 33.5567 13.2215 33.0713 12.0576C32.586 10.8939 32.4596 9.61321 32.707 8.37793C32.9545 7.14259 33.5647 6.00721 34.4619 5.11621C35.3592 4.22516 36.503 3.61801 37.748 3.37207ZM19 6.06055C18.2917 6.06055 17.599 6.26916 17.0098 6.66016C16.4206 7.05116 15.9609 7.60711 15.6895 8.25781C15.4181 8.90847 15.347 9.62459 15.4854 10.3154C15.6237 11.0064 15.9656 11.6409 16.4668 12.1387C16.9679 12.6363 17.6062 12.975 18.3008 13.1123C18.9955 13.2495 19.7165 13.1794 20.3711 12.9102C21.0254 12.6409 21.5847 12.1848 21.9785 11.5996C22.3724 11.0142 22.5829 10.3255 22.583 9.62109C22.583 8.67628 22.2054 7.7701 21.5332 7.10254C20.8611 6.43504 19.9498 6.06055 19 6.06055ZM39 6.06055C38.2917 6.06055 37.599 6.26916 37.0098 6.66016C36.4206 7.05116 35.9609 7.60711 35.6895 8.25781C35.4181 8.90847 35.347 9.62459 35.4854 10.3154C35.6237 11.0064 35.9656 11.6409 36.4668 12.1387C36.9679 12.6363 37.6062 12.975 38.3008 13.1123C38.9955 13.2495 39.7165 13.1794 40.3711 12.9102C41.0254 12.6409 41.5847 12.1848 41.9785 11.5996C42.3724 11.0142 42.5829 10.3255 42.583 9.62109C42.583 8.67628 42.2054 7.7701 41.5332 7.10254C40.8611 6.43504 39.9498 6.06055 39 6.06055ZM12.583 35.8535H12.333C11.5148 35.8534 10.7304 35.5301 10.1523 34.9561C9.57447 34.382 9.25 33.6039 9.25 32.793V22.8623L9.25586 22.6289C9.31508 21.4641 9.80778 20.3583 10.6426 19.5293C11.5329 18.6454 12.7403 18.1478 14 18.1465H44C45.2597 18.1478 46.4671 18.6454 47.3574 19.5293C48.2478 20.4135 48.7487 21.6126 48.75 22.8623V32.793C48.75 33.6039 48.4255 34.382 47.8477 34.9561C47.2696 35.5301 46.4852 35.8534 45.667 35.8535H45.417V47.6895C45.417 48.5005 45.0927 49.2795 44.5146 49.8535C43.9365 50.4276 43.1513 50.75 42.333 50.75H35.667C34.8487 50.75 34.0635 50.4276 33.4854 49.8535C32.9073 49.2795 32.583 48.5005 32.583 47.6895V28.0771H35.417V47.9395H42.583V33.043H45.917V22.8623C45.917 22.3565 45.7141 21.8718 45.3545 21.5146C44.9949 21.1576 44.5078 20.957 44 20.957H14C13.4922 20.957 13.0051 21.1576 12.6455 21.5146C12.2859 21.8718 12.083 22.3565 12.083 22.8623V33.043H15.417V47.9395H22.583V28.0771H25.417V47.6895C25.417 48.5005 25.0927 49.2795 24.5146 49.8535C23.9365 50.4276 23.1513 50.75 22.333 50.75H15.667C14.8487 50.75 14.0635 50.4276 13.4854 49.8535C12.9073 49.2795 12.583 48.5005 12.583 47.6895V35.8535Z" fill="#282850" stroke="#EFECEA" stroke-width="0.5"/>
</svg>
