<svg width="432" height="286" viewBox="0 0 432 286" fill="none" xmlns="http://www.w3.org/2000/svg">
<rect width="432" height="286" fill="#EFECEA"/>
<g clip-path="url(#clip0_4574_12)">
<path d="M60.1832 192.727C59.2683 193.637 57.9668 194.162 56.2771 194.352L61.4851 200.176V200.654H57.675L52.0314 194.401H47.6407V200.654H44.3616V183.562H55.1633C57.1396 183.562 58.7316 184.039 59.8893 184.992C61.0457 185.946 61.5764 187.285 61.5764 188.958V189.28C61.5936 189.92 61.4791 190.553 61.2398 191.147C60.9992 191.739 60.6407 192.278 60.1832 192.727ZM58.2556 188.812C58.2728 188.481 58.2069 188.151 58.0641 187.851C57.9203 187.551 57.7042 187.292 57.4335 187.094C56.9042 186.663 56.1329 186.474 55.0729 186.474H47.6467V191.489H55.0729C56.0856 191.489 56.8564 191.295 57.4335 190.867C57.7008 190.657 57.9143 190.387 58.0567 190.082C58.1996 189.775 58.268 189.438 58.2556 189.1V188.812Z" fill="#282850"/>
<path d="M70.8837 199.889C69.4333 199.236 68.2084 198.173 67.3614 196.834C66.5162 195.455 66.0806 193.865 66.1073 192.251V191.963C66.0806 190.334 66.5149 188.73 67.3614 187.333C68.196 185.985 69.4234 184.92 70.8837 184.278C72.5635 183.583 74.3667 183.225 76.1881 183.225C78.0082 183.225 79.8115 183.583 81.4912 184.278C82.9421 184.932 84.1669 185.995 85.0122 187.333C85.86 188.73 86.2943 190.334 86.2676 191.963V192.251C86.3003 193.866 85.8648 195.458 85.0122 196.834C84.1656 198.17 82.9408 199.232 81.4912 199.889C79.9957 200.606 78.2122 200.939 76.1894 200.939C74.3607 201.015 72.5415 200.655 70.8837 199.889ZM81.1534 196.452C82.3137 195.448 82.8917 194.063 82.8909 192.299V191.916C82.8909 190.149 82.3137 188.717 81.1534 187.715C79.9918 186.712 78.3585 186.233 76.1894 186.233C74.0668 186.233 72.3792 186.712 71.2215 187.715C70.0651 188.717 69.438 190.103 69.438 191.916V192.299C69.438 194.065 70.0152 195.449 71.2215 196.452C72.3792 197.456 74.0668 197.933 76.1894 197.933C78.312 197.933 79.9957 197.456 81.1534 196.452Z" fill="#282850"/>
<path d="M94.9981 199.988C93.7686 199.364 92.7472 198.402 92.0582 197.217C91.3248 195.973 90.9565 194.552 90.9978 193.112V183.562H94.2747V193.16C94.2747 194.639 94.7102 195.833 95.6265 196.643C96.5428 197.503 97.7956 197.886 99.4367 197.886C101.076 197.886 102.328 197.458 103.245 196.643C104.165 195.829 104.595 194.639 104.595 193.16V183.562H107.89V193.112C107.929 194.552 107.561 195.973 106.83 197.217C106.121 198.404 105.082 199.365 103.839 199.988C102.46 200.659 100.937 200.986 99.4009 200.941C97.8748 201.007 96.3573 200.678 94.9981 199.988Z" fill="#282850"/>
<path d="M124.217 183.56C126.195 183.56 127.785 184.039 128.895 184.991C129.464 185.461 129.917 186.055 130.219 186.725C130.52 187.396 130.66 188.127 130.63 188.861V189.147C130.659 189.878 130.517 190.608 130.216 191.277C129.916 191.945 129.463 192.538 128.895 193.006C127.737 193.959 126.195 194.438 124.217 194.438H116.742V200.648H113.465V183.554L124.217 183.56ZM126.484 190.913C126.75 190.703 126.964 190.433 127.105 190.126C127.248 189.82 127.315 189.484 127.303 189.147V188.861C127.315 188.523 127.248 188.188 127.105 187.881C126.964 187.574 126.75 187.304 126.484 187.094C125.953 186.662 125.183 186.473 124.119 186.473H116.694V191.488H124.119C124.949 191.555 125.779 191.354 126.484 190.913Z" fill="#282850"/>
<path d="M39.06 189.624V189.481C39.0893 188.287 38.6585 187.126 37.8558 186.233C36.9348 185.21 35.7525 184.452 34.4313 184.039C32.7842 183.497 31.0558 183.239 29.3209 183.275C27.4445 183.241 25.584 183.614 23.8715 184.37C22.3768 184.997 21.114 186.066 20.2554 187.429C19.3865 188.717 19.0013 190.245 19.0013 192.012V192.344C19 192.395 19 192.446 19 192.497C19.0022 194.074 19.4355 195.623 20.2554 196.977C21.1252 198.302 22.3647 199.347 23.8237 199.986C25.367 200.703 27.1983 201.036 29.3209 201.036C31.8292 201.036 33.9996 200.75 35.9746 199.462C36.0245 199.462 39.6406 197.456 39.0135 191.677H26.959V194.558H36.0245C36.0245 194.558 35.3476 197.518 30.6715 197.949C30.2712 197.988 29.8675 198.003 29.4647 197.995C27.1505 197.995 25.4135 197.518 24.2093 196.564C23.0051 195.611 22.4254 194.223 22.4254 192.409V191.979C22.4254 190.212 23.0529 188.826 24.2567 187.826C25.5108 186.824 27.2482 186.345 29.4647 186.345C30.5411 186.334 31.6132 186.479 32.6478 186.775C33.5004 186.993 34.2923 187.402 34.9619 187.969C35.2193 188.158 35.4328 188.403 35.583 188.684C35.7332 188.964 35.8171 189.275 35.8309 189.593V189.737H39.06L39.06 189.624Z" fill="#282850"/>
<path d="M92.2958 113.232H92.004V165.158H150.16V153.619H105.745V144.965H150.16V133.425H105.745V124.771H150.16V113.232H92.2958Z" fill="#282850"/>
<path d="M246.253 113.232H245.961V165.158H304.12V153.619H259.706V144.965H304.12V133.425H259.706V124.771H304.12V113.232H246.253Z" fill="#282850"/>
<path d="M323.378 113.232H309.639V165.158H358.1V153.619H323.378V113.232Z" fill="#282850"/>
<path d="M377.28 153.619V113.232H363.537V165.158H412.003V153.619H377.28Z" fill="#282850"/>
<path d="M217.957 156.4L205.242 122.175H191.049L178.337 156.4L166.229 113.232H154.083V118.924L167.051 165.158H189.985L198.147 138.782L206.308 165.158H229.242L242.208 118.924V113.232H230.066L217.957 156.4Z" fill="#282850"/>
<path d="M63.6743 113.232H19V165.158H63.6743C76.5719 165.158 87.028 153.535 87.028 139.195C87.0258 124.855 76.5719 113.232 63.6743 113.232ZM72.1334 153.619H32.7395V124.771H72.1334V153.619Z" fill="#282850"/>
</g>
<defs>
<clipPath id="clip0_4574_12">
<rect width="393" height="87.8036" fill="white" transform="translate(19 113.232)"/>
</clipPath>
</defs>
</svg>
