<svg xmlns="http://www.w3.org/2000/svg">

    <symbol viewBox="0 0 146 33" id="logo">
        <path d="M15.2996 29.8772C14.9597 30.2194 14.4762 30.4166 13.8485 30.4879L15.7833 32.677V32.8566H14.3678L12.2712 30.5065H10.64V32.8566H9.42188V26.4326H13.4347C14.1689 26.4326 14.7603 26.612 15.1904 26.9701C15.62 27.3286 15.8172 27.832 15.8172 28.4608V28.5818C15.8236 28.8221 15.781 29.0601 15.6921 29.2833C15.6028 29.5059 15.4696 29.7085 15.2996 29.8772ZM14.5835 28.406C14.5899 28.2815 14.5654 28.1574 14.5123 28.0447C14.4589 27.932 14.3787 27.8344 14.2781 27.7602C14.0815 27.5981 13.7949 27.5271 13.4011 27.5271H10.6423V29.4119H13.4011C13.7773 29.4119 14.0637 29.3392 14.2781 29.1783C14.3774 29.0993 14.4567 28.998 14.5096 28.8831C14.5627 28.7676 14.5881 28.6413 14.5835 28.514V28.406Z" />
        <path d="M19.2749 32.5691C18.736 32.3234 18.281 31.924 17.9663 31.4209C17.6523 30.9026 17.4905 30.305 17.5004 29.6985V29.59C17.4905 28.9778 17.6518 28.3749 17.9663 27.8501C18.2764 27.3434 18.7324 26.9432 19.2749 26.7019C19.8989 26.4406 20.5688 26.3062 21.2455 26.3062C21.9216 26.3062 22.5915 26.4406 23.2156 26.7019C23.7546 26.9477 24.2096 27.3471 24.5236 27.8501C24.8386 28.3749 24.9999 28.9777 24.99 29.59V29.6985C25.0022 30.3055 24.8403 30.9035 24.5236 31.4209C24.2091 31.923 23.7541 32.322 23.2156 32.5691C22.66 32.8386 21.9974 32.9636 21.2459 32.9636C20.5666 32.9922 19.8907 32.8569 19.2749 32.5691ZM23.0901 31.2773C23.5211 30.8999 23.7358 30.3795 23.7355 29.7163V29.5726C23.7355 28.9084 23.5211 28.3702 23.0901 27.9936C22.6585 27.6166 22.0518 27.4365 21.2459 27.4365C20.4574 27.4365 19.8305 27.6166 19.4004 27.9936C18.9707 28.3702 18.7378 28.8911 18.7378 29.5726V29.7163C18.7378 30.38 18.9522 30.9003 19.4004 31.2773C19.8305 31.6545 20.4574 31.8341 21.2459 31.8341C22.0345 31.8341 22.66 31.6545 23.0901 31.2773Z" />
        <path d="M28.2334 32.6062C27.7766 32.3717 27.3972 32.01 27.1412 31.5647C26.8688 31.0972 26.7319 30.5632 26.7473 30.0221V26.4326H27.9646V30.0399C27.9646 30.5959 28.1264 31.0444 28.4668 31.349C28.8072 31.6724 29.2727 31.8161 29.8823 31.8161C30.4913 31.8161 30.9564 31.6552 31.2971 31.349C31.639 31.0432 31.7986 30.5959 31.7986 30.0399V26.4326H33.0226V30.0221C33.0372 30.5632 32.9007 31.0972 32.6288 31.5647C32.3655 32.011 31.9797 32.3722 31.518 32.6062C31.0054 32.8583 30.4397 32.9814 29.869 32.9643C29.3021 32.9893 28.7383 32.8657 28.2334 32.6062Z" />
        <path d="M39.0884 26.4319C39.823 26.4319 40.4137 26.6118 40.826 26.9699C41.0377 27.1462 41.2059 27.3698 41.3178 27.6215C41.4297 27.8736 41.4819 28.1486 41.4705 28.4244V28.5316C41.4814 28.8066 41.4288 29.081 41.3169 29.3321C41.2054 29.5835 41.0372 29.8061 40.826 29.982C40.3959 30.3404 39.823 30.5204 39.0884 30.5204H36.3111V32.8541H35.0938V26.4297L39.0884 26.4319ZM39.9305 29.1954C40.0293 29.1164 40.1086 29.0151 40.1612 28.8997C40.2143 28.7847 40.2391 28.6584 40.2346 28.5316V28.4244C40.2391 28.2971 40.2143 28.1713 40.1612 28.0559C40.1086 27.9405 40.0293 27.8392 39.9305 27.76C39.7333 27.5979 39.447 27.5269 39.0517 27.5269H36.2934V29.4117H39.0517C39.3603 29.4367 39.6686 29.3613 39.9305 29.1954Z" />
        <path d="M7.45231 28.7108V28.6572C7.46319 28.2083 7.30314 27.7721 7.00496 27.4363C6.6628 27.0519 6.22359 26.7671 5.73274 26.6116C5.12085 26.408 4.47874 26.3109 3.83424 26.3245C3.13714 26.3117 2.44595 26.4521 1.80976 26.7361C1.25447 26.9719 0.785362 27.3736 0.466391 27.8858C0.143581 28.37 0.000481259 28.9443 0.000481259 29.6083V29.7331C0 29.7522 0 29.7713 0 29.7905C0.000799433 30.3835 0.161805 30.9655 0.466393 31.4744C0.789522 31.9723 1.24999 32.365 1.79201 32.6053C2.36536 32.8747 3.04568 32.9998 3.83424 32.9998C4.76606 32.9998 5.57237 32.8925 6.30609 32.4082C6.32464 32.4082 7.66801 31.6543 7.43505 29.4824H2.95678V30.5652H6.32464C6.32464 30.5652 6.07314 31.6775 4.33597 31.8397C4.18727 31.8542 4.0373 31.8601 3.88764 31.8569C3.02794 31.8569 2.38263 31.6775 1.93527 31.319C1.48791 30.961 1.27254 30.4393 1.27254 29.7577V29.5959C1.27254 28.9317 1.50565 28.411 1.95286 28.0352C2.41877 27.6585 3.06423 27.4786 3.88764 27.4786C4.28753 27.4745 4.6858 27.5286 5.07017 27.6399C5.3869 27.7221 5.68109 27.8757 5.92988 28.0889C6.02549 28.1597 6.10479 28.2519 6.16059 28.3574C6.2164 28.4628 6.24757 28.5795 6.25269 28.6991V28.7531H7.45232L7.45231 28.7108Z" />
        <path d="M27.2295 0H27.1211V19.5159H48.7263V15.1789H32.2258V11.9265H48.7263V7.5894H32.2258V4.33691H48.7263V0H27.2295Z" />
        <path d="M84.4248 0H84.3164V19.5159H105.923V15.1789H89.4226V11.9265H105.923V7.5894H89.4226V4.33691H105.923V0H84.4248Z" />
        <path d="M113.077 0H107.973V19.5159H125.976V15.1789H113.077V0Z" />
        <path d="M133.102 15.1789V0H127.996V19.5159H146.001V15.1789H133.102Z" />
        <path d="M73.9128 16.2243L69.1893 3.36104H63.9166L59.194 16.2243L54.6958 0H50.1836V2.13913L55.0013 19.5159H63.521L66.5534 9.60271L69.585 19.5159H78.1052L82.922 2.13913V0H78.4111L73.9128 16.2243Z" />
        <path d="M16.5966 0H0V19.5159H16.5966C21.388 19.5159 25.2725 15.1474 25.2725 9.75773C25.2717 4.36831 21.388 0 16.5966 0ZM19.7391 15.1789H5.10422V4.33691H19.7391V15.1789Z" />
    </symbol>

    <symbol viewBox="0 0 16 16" id="icon-favourite">
        <path fill-rule="evenodd" clip-rule="evenodd" d="M7.99413 3.42388C6.66123 1.8656 4.43853 1.44643 2.76849 2.87334C1.09846 4.30026 0.863343 6.68598 2.17483 8.3736C3.26524 9.77674 6.56521 12.7361 7.64676 13.6939C7.76777 13.801 7.82827 13.8546 7.89884 13.8757C7.96043 13.8941 8.02783 13.8941 8.08942 13.8757C8.16 13.8546 8.2205 13.801 8.3415 13.6939C9.42305 12.7361 12.723 9.77674 13.8134 8.3736C15.1249 6.68598 14.9185 4.28525 13.2198 2.87334C11.521 1.46144 9.32703 1.8656 7.99413 3.42388Z" stroke-width="2" stroke-linecap="round" stroke-linejoin="round" />
    </symbol>

    <symbol viewBox="0 0 20 20" id="icon-phone">
        <path d="M6.98356 7.37779C7.56356 8.58581 8.35422 9.71801 9.35553 10.7193C10.3568 11.7206 11.4891 12.5113 12.6971 13.0913C12.801 13.1412 12.8529 13.1661 12.9187 13.1853C13.1523 13.2534 13.4392 13.2045 13.637 13.0628C13.6927 13.0229 13.7403 12.9753 13.8356 12.88C14.1269 12.5887 14.2726 12.443 14.4191 12.3478C14.9715 11.9886 15.6837 11.9886 16.2361 12.3478C16.3825 12.443 16.5282 12.5887 16.8196 12.88L16.9819 13.0424C17.4248 13.4853 17.6462 13.7067 17.7665 13.9446C18.0058 14.4175 18.0058 14.9761 17.7665 15.449C17.6462 15.6869 17.4248 15.9083 16.9819 16.3512L16.8506 16.4825C16.4092 16.9239 16.1886 17.1446 15.8885 17.3131C15.5556 17.5001 15.0385 17.6346 14.6567 17.6334C14.3126 17.6324 14.0774 17.5657 13.607 17.4322C11.0792 16.7147 8.69387 15.361 6.70388 13.371C4.7139 11.381 3.36017 8.99569 2.6427 6.46786C2.50919 5.99749 2.44244 5.7623 2.44141 5.41818C2.44028 5.03633 2.57475 4.51925 2.76176 4.18633C2.9303 3.88631 3.15098 3.66563 3.59233 3.22428L3.72369 3.09292C4.16656 2.65005 4.388 2.42861 4.62581 2.30833C5.09878 2.0691 5.65734 2.0691 6.1303 2.30832C6.36812 2.42861 6.58955 2.65005 7.03242 3.09291L7.19481 3.25531C7.48615 3.54665 7.63182 3.69231 7.72706 3.8388C8.08622 4.3912 8.08622 5.10336 7.72706 5.65576C7.63182 5.80225 7.48615 5.94791 7.19481 6.23925C7.09955 6.33451 7.05192 6.38214 7.01206 6.43782C6.87038 6.63568 6.82146 6.92256 6.88957 7.15619C6.90873 7.22193 6.93367 7.27389 6.98356 7.37779Z" stroke-width="2" stroke-linecap="round" stroke-linejoin="round" />
    </symbol>

    <symbol viewBox="0 0 20 20" id="burger-menu">
        <path d="M1.25 10H18.75M1.25 3.75H18.75M1.25 16.25H18.75" stroke-width="2" stroke-linecap="round" stroke-linejoin="round" />
    </symbol>

    <symbol viewBox="0 0 16 16" id="burger-menu-close">
        <path d="M3.05078 3.05029L12.9503 12.9498" stroke-width="2" stroke-linecap="round" stroke-linejoin="round" />
        <path d="M3.05078 12.9497L12.9503 3.05021" stroke-width="2" stroke-linecap="round" stroke-linejoin="round" />
    </symbol>

    <symbol viewBox="0 0 20 20" id="menu-arrow">
        <path d="M5 7.5L10 12.5L15 7.5" stroke-width="2" stroke-linecap="round" stroke-linejoin="round" />
    </symbol>

    <symbol viewBox="0 0 20 20" id="icon-device">
        <path d="M10.0013 14.5832H10.0096M6.83464 18.3332H13.168C14.1014 18.3332 14.5681 18.3332 14.9246 18.1515C15.2382 17.9917 15.4932 17.7368 15.653 17.4232C15.8346 17.0666 15.8346 16.5999 15.8346 15.6665V4.33317C15.8346 3.39975 15.8346 2.93304 15.653 2.57652C15.4932 2.26292 15.2382 2.00795 14.9246 1.84816C14.5681 1.6665 14.1014 1.6665 13.168 1.6665H6.83464C5.90121 1.6665 5.4345 1.6665 5.07798 1.84816C4.76438 2.00795 4.50941 2.26292 4.34962 2.57652C4.16797 2.93304 4.16797 3.39975 4.16797 4.33317V15.6665C4.16797 16.5999 4.16797 17.0666 4.34962 17.4232C4.50941 17.7368 4.76438 17.9917 5.07798 18.1515C5.4345 18.3332 5.90121 18.3332 6.83464 18.3332ZM10.418 14.5832C10.418 14.8133 10.2314 14.9998 10.0013 14.9998C9.77118 14.9998 9.58464 14.8133 9.58464 14.5832C9.58464 14.3531 9.77118 14.1665 10.0013 14.1665C10.2314 14.1665 10.418 14.3531 10.418 14.5832Z" stroke-width="2" stroke-linecap="round" stroke-linejoin="round" />
    </symbol>

    <symbol viewBox="0 0 20 20" id="btn-arrow">
        <path d="M4.16797 9.99984H15.8346M15.8346 9.99984L10.0013 4.1665M15.8346 9.99984L10.0013 15.8332" stroke-width="2" stroke-linecap="round" stroke-linejoin="round" />
    </symbol>

    <symbol viewBox="0 0 24 24" id="slider-prev">
        <path d="M15 6L9 12L15 18" stroke-width="2" stroke-linecap="round" stroke-linejoin="round" />
    </symbol>

    <symbol viewBox="0 0 24 24" id="slider-next">
        <path d="M10 6L16 12L10 18" stroke-width="2" stroke-linecap="round" stroke-linejoin="round" />
    </symbol>

    <symbol viewBox="0 0 20 20" id="icon-filter">
        <path d="M2.5 6.6665L12.5 6.6665M12.5 6.6665C12.5 8.04722 13.6193 9.1665 15 9.1665C16.3807 9.1665 17.5 8.04722 17.5 6.6665C17.5 5.28579 16.3807 4.1665 15 4.1665C13.6193 4.1665 12.5 5.28579 12.5 6.6665ZM7.5 13.3332L17.5 13.3332M7.5 13.3332C7.5 14.7139 6.38071 15.8332 5 15.8332C3.61929 15.8332 2.5 14.7139 2.5 13.3332C2.5 11.9525 3.61929 10.8332 5 10.8332C6.38071 10.8332 7.5 11.9525 7.5 13.3332Z" stroke-width="2" stroke-linecap="round" stroke-linejoin="round" />
    </symbol>

    <symbol viewBox="0 0 20 20" id="select-arrow">
        <path d="M5 8.3335L10 13.3335L15 8.3335" stroke-width="2" stroke-linecap="round" stroke-linejoin="round" />
    </symbol>

    <symbol viewBox="0 0 18 18" id="filter-clear">
        <path d="M14.25 3.75L3.75 14.25M3.75 3.75L14.25 14.25" stroke-width="2" stroke-linecap="round" stroke-linejoin="round" />
    </symbol>

    <symbol viewBox="0 0 20 20" id="icon-location">
        <path d="M9.9987 10.8332C11.3794 10.8332 12.4987 9.71388 12.4987 8.33317C12.4987 6.95246 11.3794 5.83317 9.9987 5.83317C8.61799 5.83317 7.4987 6.95246 7.4987 8.33317C7.4987 9.71388 8.61799 10.8332 9.9987 10.8332Z" stroke-width="2" stroke-linecap="round" stroke-linejoin="round" />
        <path d="M9.9987 18.3332C13.332 14.9998 16.6654 12.0151 16.6654 8.33317C16.6654 4.65127 13.6806 1.6665 9.9987 1.6665C6.3168 1.6665 3.33203 4.65127 3.33203 8.33317C3.33203 12.0151 6.66536 14.9998 9.9987 18.3332Z" stroke-width="2" stroke-linecap="round" stroke-linejoin="round" />
    </symbol>

    <symbol viewBox="0 0 20 20" id="icon-clock">
        <path d="M10.0013 4.99984V9.99984L13.3346 11.6665M18.3346 9.99984C18.3346 14.6022 14.6037 18.3332 10.0013 18.3332C5.39893 18.3332 1.66797 14.6022 1.66797 9.99984C1.66797 5.39746 5.39893 1.6665 10.0013 1.6665C14.6037 1.6665 18.3346 5.39746 18.3346 9.99984Z" stroke-width="2" stroke-linecap="round" stroke-linejoin="round" />
    </symbol>

    <symbol viewBox="0 0 20 20" id="arrow-ext">
        <path d="M5 15L15 5M15 5H8.33333M15 5V11.6667" stroke-width="2" stroke-linecap="round" stroke-linejoin="round" />
    </symbol>

    <symbol viewBox="0 0 20 20" id="social-vk">
        <path fill-rule="evenodd" clip-rule="evenodd" d="M17.2129 11.9943C17.8763 12.6238 18.5765 13.2161 19.1715 13.9091C19.4344 14.217 19.6832 14.5348 19.8736 14.8922C20.1433 15.4003 19.899 15.9593 19.4303 15.9897L16.5166 15.9884C15.7652 16.049 15.1657 15.755 14.6616 15.2556C14.2582 14.8563 13.8846 14.4312 13.4967 14.0184C13.3377 13.8497 13.1713 13.6909 12.9724 13.5654C12.5747 13.3145 12.2294 13.3913 12.0021 13.7945C11.7706 14.2046 11.7181 14.6587 11.6954 15.1157C11.6642 15.7825 11.4568 15.9578 10.7676 15.9883C9.29473 16.0558 7.89691 15.8393 6.59838 15.1171C5.45355 14.4805 4.56579 13.5818 3.79308 12.5644C2.28861 10.5833 1.13649 8.40634 0.101007 6.1684C-0.132073 5.66419 0.0383836 5.39353 0.610798 5.38395C1.56132 5.36601 2.51171 5.36728 3.46334 5.38268C3.84966 5.38817 4.10541 5.60352 4.25458 5.95822C4.76884 7.18716 5.39809 8.35639 6.18794 9.44017C6.39829 9.72871 6.61277 10.0173 6.9182 10.2203C7.25609 10.4452 7.51335 10.3707 7.67231 10.0049C7.77317 9.77291 7.81733 9.52307 7.84007 9.27464C7.91537 8.41994 7.9253 7.56671 7.79321 6.71501C7.71213 6.18347 7.40407 5.83937 6.85834 5.73878C6.57985 5.6875 6.62131 5.58679 6.75615 5.4323C6.99035 5.16586 7.21062 5 7.6497 5H10.9426C11.461 5.09944 11.5761 5.32577 11.6471 5.83273L11.6499 9.38761C11.6442 9.58387 11.7508 10.1662 12.1145 10.2961C12.4056 10.3886 12.5975 10.1623 12.7721 9.98289C13.5605 9.16964 14.1232 8.20855 14.6259 7.21335C14.849 6.77575 15.0408 6.32129 15.2267 5.86721C15.3644 5.53027 15.5806 5.36447 15.9711 5.37182L19.1403 5.37456C19.2343 5.37456 19.3294 5.37591 19.4204 5.39104C19.9544 5.47949 20.1007 5.70276 19.9358 6.20959C19.6759 7.00477 19.1703 7.66742 18.6759 8.33315C18.1473 9.04389 17.5821 9.73031 17.058 10.4453C16.5764 11.0982 16.6147 11.4272 17.2129 11.9943Z" />
    </symbol>

    <symbol viewBox="0 0 20 20" id="social-tg">
        <path d="M7.84764 12.6505L7.51681 17.3038C7.99014 17.3038 8.19514 17.1005 8.44098 16.8563L10.6601 14.7355L15.2585 18.103C16.1018 18.573 16.696 18.3255 16.9235 17.3272L19.9418 3.18385L19.9426 3.18302C20.2101 1.93635 19.4918 1.44885 18.6701 1.75469L0.928481 8.54718C-0.282352 9.01718 -0.264018 9.69218 0.722648 9.99801L5.25848 11.4088L15.7943 4.81635C16.2901 4.48802 16.741 4.66968 16.3701 4.99802L7.84764 12.6505Z" />
    </symbol>

    <symbol viewBox="0 0 20 20" id="footer-menu">
        <path d="M5 7.5L10 12.5L15 7.5" stroke-width="2" stroke-linecap="round" stroke-linejoin="round" />
    </symbol>

    <symbol viewBox="0 0 19 18" id="icon-map-link">
        <path d="M7.25 13.5L2 16.5V4.5L7.25 1.5M7.25 13.5L12.5 16.5M7.25 13.5V1.5M12.5 16.5L17 13.5V1.5L12.5 4.5M12.5 16.5V4.5M12.5 4.5L7.25 1.5" stroke-width="2" stroke-linecap="round" stroke-linejoin="round" />
    </symbol>

    <symbol viewBox="0 0 12 13" id="filter-params-remove">
        <path d="M9.5 3L2.5 10M2.5 3L9.5 10" stroke-width="2" stroke-linecap="round" stroke-linejoin="round" />
    </symbol>

    <symbol viewBox="0 0 18 18" id="icon-share">
        <path d="M15.5935 9.45565C15.7766 9.29872 15.8682 9.22025 15.9017 9.12687C15.9311 9.04492 15.9311 8.95527 15.9017 8.87332C15.8682 8.77995 15.7766 8.70148 15.5935 8.54454L9.24047 3.09908C8.9253 2.82893 8.76772 2.69385 8.6343 2.69055C8.51835 2.68767 8.40759 2.73861 8.33432 2.82852C8.25 2.93197 8.25 3.13952 8.25 3.55463V6.77607C6.64899 7.05616 5.1837 7.86741 4.09478 9.0855C2.90762 10.4135 2.25093 12.1321 2.25 13.9133V14.3723C3.03701 13.4242 4.01963 12.6575 5.13057 12.1245C6.11002 11.6547 7.16881 11.3763 8.25 11.303V14.4456C8.25 14.8607 8.25 15.0682 8.33432 15.1717C8.40759 15.2616 8.51835 15.3125 8.6343 15.3096C8.76772 15.3063 8.9253 15.1713 9.24047 14.9011L15.5935 9.45565Z" stroke-width="2" stroke-linecap="round" stroke-linejoin="round" />
    </symbol>

    <symbol viewBox="0 0 20 20" id="icon-grid">
        <path d="M9.9987 5.00016C10.4589 5.00016 10.832 4.62707 10.832 4.16683C10.832 3.70659 10.4589 3.3335 9.9987 3.3335C9.53846 3.3335 9.16536 3.70659 9.16536 4.16683C9.16536 4.62707 9.53846 5.00016 9.9987 5.00016Z" stroke-width="2" stroke-linecap="round" stroke-linejoin="round" />
        <path d="M9.9987 10.8335C10.4589 10.8335 10.832 10.4604 10.832 10.0002C10.832 9.53993 10.4589 9.16683 9.9987 9.16683C9.53846 9.16683 9.16536 9.53993 9.16536 10.0002C9.16536 10.4604 9.53846 10.8335 9.9987 10.8335Z" stroke-width="2" stroke-linecap="round" stroke-linejoin="round" />
        <path d="M9.9987 16.6668C10.4589 16.6668 10.832 16.2937 10.832 15.8335C10.832 15.3733 10.4589 15.0002 9.9987 15.0002C9.53846 15.0002 9.16536 15.3733 9.16536 15.8335C9.16536 16.2937 9.53846 16.6668 9.9987 16.6668Z" stroke-width="2" stroke-linecap="round" stroke-linejoin="round" />
        <path d="M15.832 5.00016C16.2923 5.00016 16.6654 4.62707 16.6654 4.16683C16.6654 3.70659 16.2923 3.3335 15.832 3.3335C15.3718 3.3335 14.9987 3.70659 14.9987 4.16683C14.9987 4.62707 15.3718 5.00016 15.832 5.00016Z" stroke-width="2" stroke-linecap="round" stroke-linejoin="round" />
        <path d="M15.832 10.8335C16.2923 10.8335 16.6654 10.4604 16.6654 10.0002C16.6654 9.53993 16.2923 9.16683 15.832 9.16683C15.3718 9.16683 14.9987 9.53993 14.9987 10.0002C14.9987 10.4604 15.3718 10.8335 15.832 10.8335Z" stroke-width="2" stroke-linecap="round" stroke-linejoin="round" />
        <path d="M15.832 16.6668C16.2923 16.6668 16.6654 16.2937 16.6654 15.8335C16.6654 15.3733 16.2923 15.0002 15.832 15.0002C15.3718 15.0002 14.9987 15.3733 14.9987 15.8335C14.9987 16.2937 15.3718 16.6668 15.832 16.6668Z" stroke-width="2" stroke-linecap="round" stroke-linejoin="round" />
        <path d="M4.16536 5.00016C4.6256 5.00016 4.9987 4.62707 4.9987 4.16683C4.9987 3.70659 4.6256 3.3335 4.16536 3.3335C3.70513 3.3335 3.33203 3.70659 3.33203 4.16683C3.33203 4.62707 3.70513 5.00016 4.16536 5.00016Z" stroke-width="2" stroke-linecap="round" stroke-linejoin="round" />
        <path d="M4.16536 10.8335C4.6256 10.8335 4.9987 10.4604 4.9987 10.0002C4.9987 9.53993 4.6256 9.16683 4.16536 9.16683C3.70513 9.16683 3.33203 9.53993 3.33203 10.0002C3.33203 10.4604 3.70513 10.8335 4.16536 10.8335Z" stroke-width="2" stroke-linecap="round" stroke-linejoin="round" />
        <path d="M4.16536 16.6668C4.6256 16.6668 4.9987 16.2937 4.9987 15.8335C4.9987 15.3733 4.6256 15.0002 4.16536 15.0002C3.70513 15.0002 3.33203 15.3733 3.33203 15.8335C3.33203 16.2937 3.70513 16.6668 4.16536 16.6668Z" stroke-width="2" stroke-linecap="round" stroke-linejoin="round" />
    </symbol>

    <symbol viewBox="0 0 20 20" id="icon-sort">
        <path d="M1.66797 9.99984H14.168M1.66797 4.1665H10.0013M1.66797 15.8332H18.3346" stroke-width="2" stroke-linecap="round" stroke-linejoin="round" />
    </symbol>

    <symbol viewBox="0 0 16 16" id="detail-buy-text-link">
        <path d="M3.33594 7.99967H12.6693M12.6693 7.99967L8.0026 3.33301M12.6693 7.99967L8.0026 12.6663" stroke-linecap="round" stroke-linejoin="round" />
    </symbol>

    <symbol viewBox="0 0 20 20" id="icon-zoom">
        <path d="M17.5 17.5L13.875 13.875M9.16667 6.66667V11.6667M6.66667 9.16667H11.6667M15.8333 9.16667C15.8333 12.8486 12.8486 15.8333 9.16667 15.8333C5.48477 15.8333 2.5 12.8486 2.5 9.16667C2.5 5.48477 5.48477 2.5 9.16667 2.5C12.8486 2.5 15.8333 5.48477 15.8333 9.16667Z" stroke-width="2" stroke-linecap="round" stroke-linejoin="round" />
    </symbol>

    <symbol viewBox="0 0 20 20" id="icon-download">
        <path d="M17.5 17.5H2.5M15 9.16667L10 14.1667M10 14.1667L5 9.16667M10 14.1667V2.5" stroke-width="2" stroke-linecap="round" stroke-linejoin="round" />
    </symbol>

</svg>