<svg width="92" height="82" viewBox="0 0 92 82" fill="none" xmlns="http://www.w3.org/2000/svg">
<path d="M5 41C5 18.9086 22.9086 1 45 1C64.0225 1 79.9437 14.2786 84 32.0723" stroke="#CFCFCF"/>
<path d="M5 41C5 63.0914 22.9086 81 45 81C63.9967 81 79.9005 67.7574 83.9834 50M5 41L0.5 49M5 41L11 47.5" stroke="#242124"/>
<circle cx="45" cy="41" r="15.5" stroke="#CFCFCF"/>
<path d="M49.5 41.25L45 49L40.5 41.25H49.5Z" fill="#242124"/>
<path d="M45 33L49.5 41.25H40.5L45 33Z" fill="#AEAEAE"/>
<circle cx="45" cy="41" r="2" fill="white"/>
<path d="M48.0694 17.564H49.2094C49.0254 18.356 48.6414 18.988 48.0574 19.46C47.4734 19.924 46.7254 20.156 45.8134 20.156C44.5654 20.156 43.5934 19.744 42.8974 18.92C42.2014 18.096 41.8534 17.028 41.8534 15.716C41.8534 14.404 42.2054 13.336 42.9094 12.512C43.6134 11.688 44.5854 11.276 45.8254 11.276C46.6894 11.276 47.4094 11.492 47.9854 11.924C48.5614 12.348 48.9374 12.932 49.1134 13.676H47.9734C47.6374 12.732 46.9214 12.26 45.8254 12.26C44.8814 12.26 44.1654 12.592 43.6774 13.256C43.1894 13.92 42.9454 14.74 42.9454 15.716C42.9454 16.7 43.1854 17.524 43.6654 18.188C44.1534 18.844 44.8694 19.172 45.8134 19.172C46.4054 19.172 46.8934 19.032 47.2774 18.752C47.6614 18.464 47.9254 18.068 48.0694 17.564Z" fill="#565656"/>
<path d="M47.1368 62.276C48.3608 62.276 49.3168 62.696 50.0048 63.536C50.6928 64.376 51.0368 65.436 51.0368 66.716C51.0368 67.996 50.6928 69.056 50.0048 69.896C49.3168 70.736 48.3608 71.156 47.1368 71.156C45.9688 71.156 45.0448 70.78 44.3648 70.028C43.6928 69.268 43.3208 68.288 43.2488 67.088H41.4728V71H40.3928V62.432H41.4728V66.08H43.2728C43.3928 64.96 43.7888 64.048 44.4608 63.344C45.1328 62.632 46.0248 62.276 47.1368 62.276ZM45.8768 69.896C46.2448 70.088 46.6648 70.184 47.1368 70.184C47.6088 70.184 48.0288 70.088 48.3968 69.896C48.7648 69.704 49.0568 69.444 49.2728 69.116C49.4968 68.788 49.6648 68.424 49.7768 68.024C49.8888 67.616 49.9448 67.18 49.9448 66.716C49.9448 66.252 49.8888 65.82 49.7768 65.42C49.6648 65.012 49.4968 64.644 49.2728 64.316C49.0568 63.988 48.7648 63.728 48.3968 63.536C48.0288 63.344 47.6088 63.248 47.1368 63.248C46.6648 63.248 46.2448 63.344 45.8768 63.536C45.5088 63.728 45.2128 63.988 44.9888 64.316C44.7728 64.644 44.6088 65.012 44.4968 65.42C44.3848 65.82 44.3288 66.252 44.3288 66.716C44.3288 67.18 44.3848 67.616 44.4968 68.024C44.6088 68.424 44.7728 68.788 44.9888 69.116C45.2128 69.444 45.5088 69.704 45.8768 69.896Z" fill="#565656"/>
<path d="M20.892 39.676C20.892 39.228 20.716 38.88 20.364 38.632C20.02 38.384 19.576 38.26 19.032 38.26C17.896 38.26 17.228 38.708 17.028 39.604H15.924C16.02 38.884 16.34 38.316 16.884 37.9C17.436 37.484 18.152 37.276 19.032 37.276C19.968 37.276 20.692 37.492 21.204 37.924C21.724 38.356 21.984 38.896 21.984 39.544C21.984 40.368 21.684 40.948 21.084 41.284V41.548C21.908 41.892 22.32 42.572 22.32 43.588C22.32 44.308 22.032 44.916 21.456 45.412C20.888 45.908 20.1 46.156 19.092 46.156C18.06 46.156 17.244 45.936 16.644 45.496C16.052 45.048 15.692 44.432 15.564 43.648H16.692C16.964 44.664 17.768 45.172 19.104 45.172C19.744 45.172 20.256 45.028 20.64 44.74C21.024 44.452 21.216 44.06 21.216 43.564C21.216 42.54 20.564 42.028 19.26 42.028H17.892V41.044H19.272C19.84 41.044 20.252 40.916 20.508 40.66C20.764 40.404 20.892 40.076 20.892 39.676Z" fill="#565656"/>
<path d="M70.624 41.344V41.608C70.984 41.776 71.272 42.04 71.488 42.4C71.712 42.76 71.824 43.156 71.824 43.588C71.824 44.308 71.576 44.892 71.08 45.34C70.584 45.78 69.864 46 68.92 46H65.092V37.432H68.824C69.696 37.432 70.368 37.64 70.84 38.056C71.32 38.464 71.56 38.98 71.56 39.604C71.56 40.428 71.248 41.008 70.624 41.344ZM66.172 38.392V41.068H68.8C69.912 41.068 70.468 40.612 70.468 39.7C70.468 39.252 70.308 38.924 69.988 38.716C69.668 38.5 69.264 38.392 68.776 38.392H66.172ZM66.172 45.04H68.848C69.4 45.04 69.852 44.924 70.204 44.692C70.556 44.452 70.732 44.056 70.732 43.504C70.732 42.984 70.556 42.608 70.204 42.376C69.86 42.136 69.412 42.016 68.86 42.016H66.172V45.04Z" fill="#565656"/>
<g clip-path="url(#clip0_12113_34002)">
<path d="M84.0026 34.333V35.6663M84.0026 46.333V47.6663M78.6693 40.9997H77.3359M80.212 37.2091L79.2692 36.2663M87.7932 37.2091L88.736 36.2663M80.212 44.793L79.2692 45.7358M87.7932 44.793L88.736 45.7358M90.6693 40.9997H89.3359M87.3359 40.9997C87.3359 42.8406 85.8436 44.333 84.0026 44.333C82.1617 44.333 80.6693 42.8406 80.6693 40.9997C80.6693 39.1587 82.1617 37.6663 84.0026 37.6663C85.8436 37.6663 87.3359 39.1587 87.3359 40.9997Z" stroke="#242124" stroke-linecap="round" stroke-linejoin="round"/>
</g>
<defs>
<clipPath id="clip0_12113_34002">
<rect width="16" height="16" fill="white" transform="translate(76 33)"/>
</clipPath>
</defs>
</svg>
