<svg width="110" height="110" viewBox="0 0 110 110" fill="none" xmlns="http://www.w3.org/2000/svg">
<path d="M20.3594 34.9999C31.4051 15.8682 55.8687 9.31319 75.0004 20.3589C91.4744 29.8701 98.6232 49.3303 93.2392 66.7683" stroke="#CFCFCF"/>
<path d="M20.359 34.9999C9.31333 54.1316 15.8683 78.5952 35 89.6409C51.4517 99.1393 71.8461 95.6227 84.2607 82.2858M20.359 34.9999L12.4619 39.6781M20.359 34.9999L22.3052 43.6291" stroke="#242124"/>
<circle cx="55" cy="54.9999" r="15.5" transform="rotate(30 55 54.9999)" stroke="#CFCFCF"/>
<path d="M58.7727 57.4664L51.0006 61.9281L50.9785 52.9664L58.7727 57.4664Z" fill="#242124"/>
<path d="M59.0006 48.0717L58.7727 57.4664L50.9785 52.9664L59.0006 48.0717Z" fill="#AEAEAE"/>
<circle cx="55.0006" cy="54.9999" r="2" transform="rotate(30 55.0006 54.9999)" fill="white"/>
<path d="M69.3764 36.2384L70.3636 36.8084C69.8083 37.4023 69.1597 37.7576 68.418 37.8744C67.6802 37.9842 66.9164 37.8111 66.1266 37.3551C65.0458 36.7311 64.41 35.8883 64.2193 34.8267C64.0285 33.7651 64.2612 32.6662 64.9172 31.53C65.5732 30.3938 66.412 29.6449 67.4337 29.2832C68.4554 28.9216 69.5031 29.0508 70.577 29.6708C71.3253 30.1028 71.8408 30.6499 72.1236 31.312C72.4105 31.9672 72.4441 32.661 72.2245 33.3933L71.2372 32.8233C71.4183 31.8378 71.0342 31.071 70.085 30.523C69.2675 30.051 68.4814 29.9805 67.7268 30.3116C66.9722 30.6426 66.3509 31.2308 65.8629 32.076C65.3709 32.9282 65.1667 33.7618 65.2504 34.5768C65.345 35.3889 65.8011 36.031 66.6186 36.503C67.1313 36.799 67.6239 36.9217 68.0965 36.8712C68.573 36.8138 68.9997 36.6029 69.3764 36.2384Z" fill="#565656"/>
<path d="M46.2133 74.4938C47.2734 75.1058 47.8913 75.9476 48.0671 77.019C48.2429 78.0905 48.0108 79.1805 47.3708 80.289C46.7308 81.3975 45.9029 82.1435 44.8871 82.527C43.8713 82.9104 42.8334 82.7962 41.7733 82.1842C40.7618 81.6002 40.1496 80.8125 39.9367 79.8213C39.7348 78.8271 39.9026 77.7924 40.4402 76.7172L38.9022 75.8292L36.9462 79.2171L36.0109 78.6771L40.2949 71.2569L41.2302 71.7969L39.4062 74.9562L40.965 75.8562C41.6289 74.9463 42.4279 74.3544 43.3619 74.0808C44.2998 73.8002 45.2503 73.9378 46.2133 74.4938ZM41.3122 80.463C41.5349 80.8132 41.8506 81.1064 42.2593 81.3424C42.6681 81.5784 43.0798 81.7052 43.4945 81.723C43.9092 81.7407 44.2921 81.6615 44.6432 81.4855C45.0012 81.3134 45.3287 81.0822 45.6257 80.7918C45.9266 80.4944 46.1931 80.1448 46.4251 79.743C46.6571 79.3412 46.8246 78.939 46.9277 78.5366C47.0347 78.1273 47.0732 77.7246 47.0432 77.3285C47.0201 76.9365 46.8972 76.5653 46.6745 76.215C46.4518 75.8648 46.1361 75.5716 45.7273 75.3356C45.3186 75.0996 44.9069 74.9728 44.4922 74.955C44.0775 74.9373 43.6911 75.0145 43.3331 75.1865C42.9821 75.3626 42.656 75.5993 42.355 75.8966C42.058 76.187 41.7935 76.5332 41.5615 76.935C41.3295 77.3368 41.16 77.7424 41.053 78.1518C40.95 78.5542 40.9101 78.9514 40.9331 79.3435C40.9631 79.7395 41.0895 80.1127 41.3122 80.463Z" fill="#565656"/>
<path d="M34.7842 41.7993C35.0082 41.4113 35.0297 41.0219 34.8489 40.6312C34.675 40.2444 34.3525 39.915 33.8813 39.643C32.8975 39.075 32.095 39.129 31.4738 39.8049L30.5177 39.2529C30.9609 38.6774 31.522 38.3455 32.2011 38.2572C32.8872 38.173 33.6112 38.3508 34.3733 38.7908C35.1839 39.2588 35.7029 39.8079 35.9304 40.438C36.1647 41.0721 36.1199 41.6698 35.7959 42.231C35.3839 42.9446 34.834 43.2969 34.1464 43.2879L34.0144 43.5165C34.556 44.2264 34.5728 45.0213 34.0648 45.9012C33.7048 46.5247 33.1514 46.9073 32.4046 47.0488C31.6647 47.1944 30.8583 47.0151 29.9853 46.5111C29.0916 45.9951 28.4949 45.3966 28.1953 44.7156C27.9066 44.0316 27.9028 43.3181 28.184 42.5751L29.1608 43.1391C28.8884 44.155 29.3307 44.997 30.4877 45.665C31.042 45.985 31.5574 46.1163 32.0339 46.0588C32.5105 46.0014 32.8727 45.7579 33.1207 45.3284C33.6327 44.4416 33.3241 43.6722 32.1948 43.0202L31.0101 42.3362L31.5021 41.484L32.6972 42.174C33.1891 42.458 33.6099 42.5532 33.9596 42.4595C34.3093 42.3658 34.5842 42.1457 34.7842 41.7993Z" fill="#565656"/>
<path d="M77.0196 68.1098L76.8876 68.3384C77.1154 68.6639 77.2328 69.0366 77.2399 69.4563C77.2539 69.8801 77.1529 70.2791 76.9369 70.6532C76.5769 71.2767 76.0701 71.6585 75.4165 71.7985C74.767 71.9315 74.0335 71.762 73.2159 71.29L69.9008 69.376L74.1848 61.9559L77.4168 63.8219C78.172 64.2579 78.6499 64.7741 78.8507 65.3703C79.0624 65.9637 79.0122 66.5305 78.7002 67.0709C78.2882 67.7845 77.728 68.1308 77.0196 68.1098ZM74.6401 63.3273L73.3021 65.6448L75.578 66.9588C76.541 67.5148 77.2505 67.3979 77.7065 66.6081C77.9305 66.2201 77.956 65.856 77.7828 65.5159C77.6137 65.1688 77.3178 64.8733 76.8952 64.6293L74.6401 63.3273ZM71.3161 69.0846L73.6336 70.4226C74.1116 70.6986 74.5611 70.8242 74.9819 70.7993C75.4067 70.7674 75.7572 70.5125 76.0332 70.0344C76.2932 69.5841 76.3287 69.1705 76.1399 68.7936C75.962 68.4137 75.634 68.0858 75.156 67.8098L72.8281 66.4658L71.3161 69.0846Z" fill="#565656"/>
<g clip-path="url(#clip0_10446_18990)">
<path d="M92.1094 68.7264L91.4428 69.8811M86.1094 79.1187L85.4428 80.2734M84.1573 71.8332L83.0026 71.1666M87.3887 69.3219L87.0436 68.034M93.9541 73.1125L95.242 72.7674M83.5967 75.8897L82.3088 76.2348M90.1622 79.6803L90.5073 80.9682M94.5496 77.8332L93.3949 77.1666M91.6629 76.1666C90.7424 77.7609 88.7037 78.3071 87.1094 77.3867C85.5151 76.4662 84.9689 74.4275 85.8894 72.8332C86.8098 71.2389 88.8485 70.6927 90.4428 71.6132C92.0371 72.5336 92.5833 74.5723 91.6629 76.1666Z" stroke="#242124" stroke-linecap="round" stroke-linejoin="round"/>
</g>
<defs>
<clipPath id="clip0_10446_18990">
<rect width="16" height="16" fill="white" transform="translate(85.8477 63.5717) rotate(30)"/>
</clipPath>
</defs>
</svg>
